<svg xmlns="http://www.w3.org/2000/svg" viewBox="0 0 59.24 53.3"><defs><style>.cls-1{fill:#65a3f2;}.cls-2{fill:#67a4f2;}</style></defs><title>cardiologialdpi</title><g id="Capa_2" data-name="Capa 2"><g id="Capa_1-2" data-name="Capa 1"><path class="cls-1" d="M59.2,18.23c0,7.23-2.57,12.77-6.15,17.91A56.42,56.42,0,0,1,35.88,51.86c-2.83,1.74-5.64,2-8.58.22a61.19,61.19,0,0,1-13.6-11,6.32,6.32,0,0,1-.71-.93c-.53-.86-.77-1.79.11-2.53s1.67-.17,2.3.42c1.09,1,2.09,2.11,3.14,3.17a48.55,48.55,0,0,0,9.38,7.37c2.14,1.3,4.17,1.8,6.51.31,8.82-5.63,16.23-12.55,20.07-22.52C56.78,20.38,56.76,14.41,53,8.86,46.6-.46,37.21,3.06,33.47,10.35c-.49,1-.65,2.21-2.09,2.2s-1.59-1.25-2.07-2.21a12.7,12.7,0,0,0-6.88-6.4c-4.62-1.79-9.59.19-12.67,4.92A16.92,16.92,0,0,0,6.85,19.29c.06,1,.07,2,.13,3a1.56,1.56,0,0,1-1.22,1.77c-1,.21-1.57-.48-1.85-1.4C1.5,14.78,7.45-.83,19.93.09A14.55,14.55,0,0,1,30.18,5.58c.8.93,1.35,1.47,2.33.22,7-8.89,20.07-7.74,25.17,4.75A17.24,17.24,0,0,1,59.2,18.23Z"/><path class="cls-2" d="M33.5,27.08c-.89,3.39-1.76,6.6-2.56,9.82a7.8,7.8,0,0,1-1.09,2.57,2.57,2.57,0,0,1-4.46.06c-1.48-2-1.62-4.52-2.27-6.83-1.11-3.95-2-8-3.24-12a21.72,21.72,0,0,0-2.21,6.77c-1,4.4-2,5.27-6.51,5.27-2.89,0-5.79,0-8.68,0C1.18,32.81,0,32.55,0,31s1.3-1.71,2.56-1.7c3,0,5.95-.06,8.92,0,1.62.05,2.48-.26,2.84-2.13.59-3.12,1.59-6.17,2.5-9.23.44-1.5,1.34-2.78,3.06-2.77s2.41,1.33,2.79,2.74q2.05,7.67,4,15.37a3.66,3.66,0,0,0,1.18,2.36c.8-3.35,1.49-6.51,2.31-9.63.53-2,.94-4.53,3.56-4.59S36.82,24,37.33,26c.85,3.33.76,3.32,4.2,3.38,1.46,0,3.62-.54,3.7,1.69.08,2.4-2.14,1.64-3.58,1.77-.7.06-1.41,0-2.11,0-3.05,0-4.38-1.07-5.12-4C34.29,28.25,34.45,27.64,33.5,27.08Z"/></g></g></svg>