<svg xmlns="http://www.w3.org/2000/svg" viewBox="0 0 44.99 48.79"><defs><style>.cls-1{fill:#66a4f2;}</style></defs><title>Odontologíaldpi</title><g id="Capa_2" data-name="Capa 2"><g id="Capa_1-2" data-name="Capa 1"><path class="cls-1" d="M25.81,3.53l1,.42c1,.43,2.21,1.28,1.86,2.32a1.53,1.53,0,0,1-1.53.9,4.69,4.69,0,0,1-1.8-.59A35.09,35.09,0,0,0,13.09,2.9,10.68,10.68,0,0,0,6.73,4C3.44,6,2.41,10.39,3,14.18S5.5,21.41,6.79,25A50.52,50.52,0,0,1,9.32,37.65c.25,2.87.53,6.11,2.79,7.9a1.27,1.27,0,0,0,.91.35c.65-.09.85-.91.88-1.56a44.18,44.18,0,0,1,.57-7A9.34,9.34,0,0,1,18,31.53a8.07,8.07,0,0,1,4.3-1.32,8,8,0,0,1,4.43,1.06,9.27,9.27,0,0,1,3.84,6,46.55,46.55,0,0,1,.64,7.31,1.44,1.44,0,0,0,.47,1.18c.45.28,1,0,1.44-.34,2.28-1.92,2.48-5.29,2.71-8.27a47.64,47.64,0,0,1,2.6-12.56c1.28-3.53,3.09-6.91,3.66-10.62s-.44-8-3.64-10c-2.65-1.64-6-1.27-9.1-.71-1,.18-2.35.22-2.74-.73A1.54,1.54,0,0,1,27.32.8a4.43,4.43,0,0,1,2-.51c3.83-.35,8-.5,11.18,1.68,2.85,2,4.31,5.51,4.47,9a26.45,26.45,0,0,1-2,10.12,76.11,76.11,0,0,0-3.32,9.83c-.84,3.89-.78,8-1.81,11.8a9.06,9.06,0,0,1-3.11,5.19c-1.68,1.2-4.28,1.26-5.61-.3-1.12-1.32-1-3.24-1-5a13.3,13.3,0,0,0-1-6.29A5.52,5.52,0,0,0,22.12,33a5.5,5.5,0,0,0-4.34,3.48A13.36,13.36,0,0,0,17,42.21c.06,1.91.15,4.05-1.14,5.46-1.6,1.74-4.64,1.32-6.35-.31S7.16,43.29,6.8,41c-.54-3.47-.59-7-1.37-10.44S3.09,23.69,1.85,20.3-.34,13.29.11,9.7A10.74,10.74,0,0,1,5.23,1.63C8.6-.34,12.83-.26,16.6.48A47.32,47.32,0,0,1,25.81,3.53Z"/></g></g></svg>