<svg xmlns="http://www.w3.org/2000/svg" viewBox="0 0 65.3 49.68"><defs><style>.cls-1{fill:#65a3f2;}</style></defs><title>Optometríaldpi</title><g id="Capa_2" data-name="Capa 2"><g id="Capa_1-2" data-name="Capa 1"><path class="cls-1" d="M15.37,49.68A15.27,15.27,0,0,0,30.6,34.5a2.1,2.1,0,0,1,1.71-2.08l.34,0a2,2,0,0,1,2,2,15.3,15.3,0,0,0,30.6,0,15,15,0,0,0-3.22-9.32L62,25l.08-.08,1.79-1.79a1.14,1.14,0,0,0,0-1.61l-1-1a1,1,0,0,0-1.41,0l-2,2-.09-.07a15.42,15.42,0,0,0-1.7-1.14l-.06,0V17.16a2,2,0,0,1,2-2h1a.83.83,0,0,0,.83-.83V12.42a.89.89,0,0,0-.89-.89H38l0-.08A5.7,5.7,0,0,0,34.53,8l-.08,0V3.59h3a.87.87,0,0,0,.87-.87V.58A.58.58,0,0,0,37.71,0H27.77A.76.76,0,0,0,27,.76v2a.85.85,0,0,0,.85.85h3V8l-.08,0a5.7,5.7,0,0,0-3.43,3.43l0,.08H4.73a.89.89,0,0,0-.89.88V14.7a.42.42,0,0,0,.42.42H5.64a2,2,0,0,1,2,2v4.09l-.06,0a15.34,15.34,0,0,0-1.7,1.14l-.09.07L3.72,20.39a.81.81,0,0,0-1.14,0L1.12,21.85a.71.71,0,0,0,0,1L3.29,25l-.07.09A15,15,0,0,0,0,34.44,15.32,15.32,0,0,0,15.37,49.68ZM61.71,34.44a11.5,11.5,0,0,1-3.51,8.29,11.74,11.74,0,0,1-8.26,3.35h-.31A11.68,11.68,0,0,1,38.3,35,11.66,11.66,0,0,1,49.93,22.79,11.72,11.72,0,0,1,61.71,34.44Zm-7.3-19.33-.06.17A5.62,5.62,0,0,0,54,17.16v2.59l-.16,0a15.48,15.48,0,0,0-7.75,0l-.16,0V17.16a5.61,5.61,0,0,0-.32-1.88l-.06-.17ZM32.65,11.27a2,2,0,1,1-2,2A2,2,0,0,1,32.65,11.27Zm-9.73,5.89a2,2,0,0,1,2-2h2.34l0,.08a5.69,5.69,0,0,0,3.43,3.43l.08,0v3.39a.74.74,0,0,0,.74.74h2a.81.81,0,0,0,.81-.81V18.66l.08,0A5.69,5.69,0,0,0,38,15.2l0-.08h2.34a2,2,0,0,1,2,2v4.05l-.06,0a15.3,15.3,0,0,0-6.77,8.19l0,.14-.13-.07a5.72,5.72,0,0,0-5.43,0l-.13.07,0-.14A15.3,15.3,0,0,0,23,21.25l-.06,0Zm-3.21-2-.06.17a5.61,5.61,0,0,0-.32,1.88v2.57l-.16,0a15.47,15.47,0,0,0-7.75,0l-.16,0V17.16A5.62,5.62,0,0,0,11,15.28l-.06-.17Zm-4.35,7.68A11.66,11.66,0,0,1,27,35,11.68,11.68,0,0,1,15.67,46.08h-.31A11.74,11.74,0,0,1,7.1,42.73a11.5,11.5,0,0,1-3.51-8.29A11.72,11.72,0,0,1,15.37,22.79Z"/><path class="cls-1" d="M17,27.07a7.87,7.87,0,0,0-1.67-.18,7.72,7.72,0,0,0-4.85,1.72,7.49,7.49,0,0,0-2.84,5.84A7.63,7.63,0,0,0,15.37,42,7.56,7.56,0,0,0,17,27.07Zm2.19,8.25a4,4,0,0,1-2.87,3,4.1,4.1,0,0,1-3.54-.76,3.91,3.91,0,0,1-1.55-3.08,4.09,4.09,0,0,1,4.09-4,4,4,0,0,1,3.87,4.84Z"/><path class="cls-1" d="M49.93,26.88a7.56,7.56,0,0,0-1.68,14.93,7.73,7.73,0,0,0,6.53-1.53,7.48,7.48,0,0,0,2.84-5.84A7.63,7.63,0,0,0,49.93,26.88Zm2.54,10.64a4.1,4.1,0,0,1-3.54.76,4,4,0,0,1,1-7.81,4.09,4.09,0,0,1,4.09,4A3.91,3.91,0,0,1,52.48,37.52Z"/></g></g></svg>