<svg xmlns="http://www.w3.org/2000/svg" viewBox="0 0 41.29 57"><defs><style>.cls-1{fill:#60a0f2;}</style></defs><title>Otorrinolaringologíaldpi</title><g id="Capa_2" data-name="Capa 2"><g id="Capa_1-2" data-name="Capa 1"><path class="cls-1" d="M41.27,19c-.22,8.34-2.7,13.79-7.94,17.85-3,2.3-4.3,5.46-5,9-1.7,8.33-10.92,12.74-17.55,10.6a15.93,15.93,0,0,1-5.75-3c-1.18-1-1.71-2.6-.88-3.34,1.11-1,2.18-.64,3.15.33,3.73,3.73,11.41,3.44,14.93-.77a12.16,12.16,0,0,0,2.67-5.51,17.06,17.06,0,0,1,6.22-10.34c5.46-4.47,7.46-10.4,5.8-17.19A15.77,15.77,0,0,0,24.4,4.35c-9.26-2-17.14,2.77-20.13,12.07a19.12,19.12,0,0,0-.49,3.91c-.12,1.17-.53,2.21-1.85,2.17S0,21.42,0,20A19.18,19.18,0,0,1,4.28,8,19.92,19.92,0,0,1,23,.16,20,20,0,0,1,38.44,10.4C40.32,13.57,41.5,17,41.27,19Z"/><path class="cls-1" d="M19.43,11.57a8.93,8.93,0,0,0-4.31,1.59A10.72,10.72,0,0,0,11,20a14.75,14.75,0,0,0,1,8,5,5,0,0,1,.54,1.9,1.45,1.45,0,0,1-1.09,1.47c-.78.1-1.37-.66-1.74-1.35A16.18,16.18,0,0,1,8.35,18.77c1.16-4.69,4.59-9.41,9.55-10.33a13,13,0,0,1,12.84,5.09A13,13,0,0,1,29,29.81c-.77.73-2.05,1.35-2.81.6a1.62,1.62,0,0,1-.14-1.85,7.14,7.14,0,0,1,1.26-1.52,9.63,9.63,0,0,0,.17-12.49A9.58,9.58,0,0,0,19.43,11.57Z"/><path class="cls-1" d="M13.17,25.85a1.41,1.41,0,0,1,.42-1.3c.8-.67,2,0,2.76.69A15.72,15.72,0,0,1,21,31.64c.66,1.93.6,4.33-.92,5.68a5.91,5.91,0,0,1-2.42,1.15,18.66,18.66,0,0,1-8.83.4,1.81,1.81,0,0,1-.91-.44c-.56-.59-.14-1.66.59-2a4.72,4.72,0,0,1,2.42-.26,18.21,18.21,0,0,0,5.94-.72,2.29,2.29,0,0,0,.81-.37,2,2,0,0,0,.53-1.83c-.27-2.19-1.94-3.91-3.6-5.36a4.82,4.82,0,0,1-1.3-1.48A1.89,1.89,0,0,1,13.17,25.85Z"/></g></g></svg>