<svg xmlns="http://www.w3.org/2000/svg" viewBox="0 0 60.16 53.66"><defs><style>.cls-1{fill:#66a3f2;stroke:#66a3f2;stroke-miterlimit:10;stroke-width:0.88px;}</style></defs><title>Pediatríaldpi</title><g id="Capa_2" data-name="Capa 2"><g id="Capa_1-2" data-name="Capa 1"><path class="cls-1" d="M29.48,53.15a32.91,32.91,0,0,1-12.66-1.67A13.81,13.81,0,0,1,10,47c-3-4-4-9.05-8.29-12.48C-1,32.44,1,26.61,4.23,26.08c2.65-.44,2.35-1.64,2.46-3.4.58-9.25,5.1-16.07,13.47-19.9,16.33-7.47,32.43,4.05,33.51,19,.14,2,.5,3.24,2.57,4.4,4.7,2.62,4.54,8.49.08,11.52-1,.67-2.32.6-2.85,2.3-2.86,9.14-8,12.81-18,13.14C33.7,53.2,31.94,53.15,29.48,53.15ZM30.83,2.91c3,2.31,5,4.4,5.73,7.34a7.17,7.17,0,0,1-8.75,8.69,5.48,5.48,0,0,1-4.24-5c-.3-2.54.93-4.16,3-5.29,1-.51,2.18-.81,2.79.16,1,1.54-.76,1.55-1.51,1.88-1.95.85-2.76,2.07-1.7,4.08s2.63,2.84,4.72,2C34,15.58,35,13.12,34.06,10,32.72,5.39,26.48,2.41,22,4.38,15.6,7.15,11.24,11.9,9.57,18.7S8.43,32.69,9,39.64c.47,5.3,4.17,8.56,9.23,9.93a44.68,44.68,0,0,0,22.54.3c7.86-1.93,10.87-6,10.9-14.1,0-4.1.11-8.2,0-12.29C51.31,12.45,42.67,3.6,30.83,2.91ZM6.66,36.3c0-2.61,0-4.75,0-6.9,0-.66.32-1.5-.72-1.67a1.62,1.62,0,0,0-1.7.75C1.61,31.6,2,33.21,6.66,36.3Zm47.43-8.72V36.4C58.27,32.93,58.24,30.72,54.08,27.59Z"/><path class="cls-1" d="M30.48,40.66a11.31,11.31,0,0,1-6.14-2.24c-.67-.53-1-1.19-.55-1.86s1.25-.59,1.9-.07c3,2.46,6.08,2.38,9.11,0,.65-.52,1.39-.62,1.85.16s0,1.32-.63,1.85A11.93,11.93,0,0,1,30.48,40.66Z"/><path class="cls-1" d="M42.63,30.64c1.1.43,2.2.77,1.9,2.37-.24,1.32-.89,2.18-2.24,2a2,2,0,0,1-2-2.35C40.41,31.27,41.43,30.85,42.63,30.64Z"/><path class="cls-1" d="M17.87,30.62c1.17.29,2.21.67,2.25,2.17A2,2,0,0,1,18,35,2.06,2.06,0,0,1,15.74,33C15.67,31.51,16.7,31,17.87,30.62Z"/></g></g></svg>