<?xml version="1.0" encoding="utf-8"?>
<!-- Generator: Adobe Illustrator 25.4.0, SVG Export Plug-In . SVG Version: 6.00 Build 0)  -->
<svg version="1.1" id="Capa_1" xmlns="http://www.w3.org/2000/svg" xmlns:xlink="http://www.w3.org/1999/xlink" x="0px" y="0px"
	 viewBox="0 0 1080 1080" style="enable-background:new 0 0 1080 1080;" xml:space="preserve">
<style type="text/css">
	.st0{fill:#0071CA;}
</style>
<g>
	<path class="st0" d="M920.32,566.86c-18.51-35.79-46.33-66.04-64.49-102.13c-2.6-5.17-6.19-11.99-5.29-16.51
		c1.88-9.43,6.57-18.12,7.94-27.67c2.97-20.6-1.08-43.81-4.25-64.22c-6.17-39.69-19.97-78.3-40.11-113.04
		c-39.94-68.92-106.88-118.45-183.55-139.02c-84.16-22.57-177.78-9.6-257.64,22.88c-75.78,30.82-142.75,83.81-181.68,156.68
		c-45.29,84.76-45.87,187.09-11.54,275.72c15.71,40.57,39.55,76.36,60.71,114.1c13.08,23.34,31.39,52.44,30.56,79.95
		c-1.55,51.12-3.09,102.24-4.64,153.36c-0.68,22.39-1.36,44.78-2.03,67.17c-0.52,17.22,26.17,17.17,26.69,0
		c1.36-44.82,2.71-89.65,4.07-134.47c0.77-25.28,1.53-50.56,2.3-75.84c0.13-4.39,0.26-8.78,0.4-13.17c0.51-16.97-7-34.2-13.54-49.43
		c-15.64-36.42-38.11-69.28-57.37-103.76c-26.43-47.31-42.75-100.2-44.8-154.47c-3.15-83.2,28.99-162.47,88.86-220.13
		c59.97-57.75,142.19-89.71,223.92-99.93c81.57-10.2,166.31,6.03,231.42,58.34c61.26,49.21,97.12,123.36,104.6,200.95
		c0.98,10.19,1.41,20.42,1.51,30.64c0.08,7.82-4.67,17.64-7.03,26.12c-5.12,18.42,5.13,35.77,14.01,51.36
		c10.71,18.81,23.33,36.53,35.49,54.42c5.33,7.84,10.61,15.72,15.63,23.77c2.09,3.35,4.08,6.76,5.99,10.22
		c1.21,2.18,1.33,4.5,2.03,3.34c-3.66,7.67-14.57,12.31-21.56,15.9c-9.16,4.7-18.79,8.37-28.38,12.06
		c-6.43,2.47-11.87,9.05-9.32,16.42c3.59,10.35,7.15,20.77,9.34,31.52c0.4,1.95,0.53,4,0.48,6.21c-0.01-0.18-0.05-0.05-0.1,0.22
		c-0.36,0.14-0.96,0.37-1.8,0.64c-2.45,0.77-5.03,1.1-7.47,1.91c-10.69,3.56-13,14.97-7.83,24.02c3.37,5.91,8.9,10.75,13.41,15.86
		c-2.3,3.79-5.5,7.11-8.25,10.55c-5.4,6.77-10.99,14.54-10.02,23.7c0.68,6.45,1.69,12.87,2.66,19.28c1.36,9.01,2.9,19.88,1.93,31.14
		c-0.6,6.89-4.56,15.77-11.18,20.63c-13.66,10.03-32.26,12.09-48.63,13.2c-20.5,1.39-40.56,0.65-60.84,4.79
		c-15.14,3.09-29.15,9.25-41.27,18.82c-13.5,10.66-18.7,26.44-20.89,42.81c-3.63,27.17-4.12,54.99-4.12,82.38
		c0,17.21,26.69,17.21,26.69,0c0-12.97,0.34-25.95,0.85-38.9c0.41-10.44,1.04-20.88,1.95-31.29c0.79-9.05,1.36-18.41,5.83-26.5
		c8.11-14.67,27.32-19.61,42.49-22.45c19.96-3.74,40.49-1.79,60.62-3.95c30.65-3.28,64.09-14.4,73.19-47.24
		c3.12-11.28,2.63-23.35,1.29-34.85c-0.71-6.14-1.65-12.25-2.58-18.36c-0.2-1.33-0.4-2.65-0.59-3.98c-0.02-0.17-0.62-4.5-0.25-1.68
		c-0.48-3.59-1.12-4,0.13-6.18c7.57-13.26,24.28-23.86,16.68-41.17c-1.75-3.98-4.66-7.49-7.7-10.79
		c17.77-11.34,12.2-35.95,5.6-56.08C897.69,619.44,937.69,600.43,920.32,566.86z M848.86,664.79L848.86,664.79
		c-0.02,0.02-0.02,0.02-0.04,0.03C848.83,664.82,848.84,664.81,848.86,664.79z"/>
	<path class="st0" d="M476.04,510.36c35.63-18.56,45.96-64.24,28.14-98.45c-7.95-15.27-30.99-1.77-23.05,13.47
		c11.79,22.64,3.29,49.31-18.56,61.94c-22.1,12.77-49.73,2.56-61.94-18.57c-8.61-14.89-31.67-1.46-23.05,13.47
		C397.69,517.02,440.66,528.79,476.04,510.36z"/>
	<path class="st0" d="M551.71,248.53c-3.72-16.8-29.45-9.67-25.74,7.1c4.6,20.75,24.27,35.56,45.63,32.81
		c22.4-2.89,39.29-23.35,36.36-46.11c-0.93-7.21-5.36-13.34-13.34-13.34c-6.57,0-14.28,6.11-13.34,13.34
		C584.01,263.48,556.42,269.78,551.71,248.53z"/>
	<path class="st0" d="M666.02,305.22c16.33-5.2,9.35-30.97-7.1-25.74c-26.53,8.45-41.26,34.41-34.68,61.52
		c6.56,27.04,35.84,40.91,61.52,34.68c16.72-4.06,9.63-29.79-7.09-25.74C649.5,357.02,637.41,314.34,666.02,305.22z"/>
	<path class="st0" d="M354.41,257.64c-19.43,20.16-19.49,49.9-0.95,70.61c18.66,20.84,51.05,18.46,70.61,0.95
		c12.85-11.5-6.09-30.32-18.87-18.87c-22.44,20.1-52.67-12.28-31.92-33.81C385.22,264.13,366.37,245.23,354.41,257.64z"/>
	<path class="st0" d="M455.2,341.07c-26.4,15.51-32.9,50.71-17.93,76.19c8.71,14.82,31.78,1.4,23.05-13.47
		c-8.03-13.67-5.09-30.61,8.36-39.68c13.14-8.86,31.02-4.46,39.67,8.36c9.56,14.18,32.7,0.84,23.04-13.47
		C514.26,333.62,481.92,325.38,455.2,341.07z"/>
	<path class="st0" d="M376.23,444.98c11.56-22.91,4.64-49.2-17.46-62.69c-21.89-13.36-50.01-3.31-62.69,17.46
		c-8.99,14.73,14.1,28.13,23.04,13.47c12.95-21.21,45.35-4.1,34.06,18.28C345.46,446.83,368.48,460.35,376.23,444.98z"/>
	<path class="st0" d="M784.43,411.33c21.4-52.78-5.81-111.73-54.29-136.61c-5.69-37.18-35.16-66.69-73.15-69.59
		c-23.13-29.35-62.77-40.9-97.02-25.14c-30.56-19.14-70.11-18.15-97.17,6.71c-0.59-0.35-1.18-0.72-1.79-1.06
		c-34.46-19.3-78.51-6.41-100.57,24.73c-43.31,0.46-79.34,32.5-87.85,74.3c-21.04,11.35-36.2,30.34-43.99,53.05
		c-4.18,12.18-5.21,25.73-3.83,38.47c0.69,6.4,1.98,12.63,3.87,18.77c0.48,1.46,1.01,2.9,1.57,4.33c-0.08,0.31-0.17,0.67-0.27,1.08
		c-0.97,3.33-1.57,6.74-2.12,10.16c-8.2,50.67,23.18,99,68.55,119.34c6.71,36.12,34.51,67.15,68.76,79.74
		c13.22,4.86,27.21,6.26,40.89,4.73c-5.17,23.53-5.06,47.05-0.26,71c3.38,16.87,29.1,9.71,25.74-7.1
		c-4.54-22.66-3.51-44.65,2.79-66.86c0.49-1.72,0.63-3.33,0.53-4.83c11.98-5.24,22.98-12.77,32.08-22.18
		c11.96-12.37-6.89-31.26-18.87-18.87c-18.62,19.26-44.88,26.8-70.83,19.94c-27.71-7.33-53.09-36.2-55.4-64.99
		c-0.51-6.34-3.78-10.72-9.8-12.87c-28.63-10.23-49.84-34.85-57-64.19c-1.73-7.12-2.03-14.37-1.73-21.66
		c0.32-7.77,4.44-15.27,4.44-22.84c0-7.51-5.05-16.08-6.37-23.7c-1.15-6.66-0.67-14.06,0.5-20.68c2.57-14.5,9.86-27.18,20.43-37.29
		c5.48-5.25,12.17-8.98,19.03-12.13c7.81-3.58,7.08-16.22,9.15-23.34c8.42-29.06,38.02-46.54,67.22-44.49
		c4.53,0.32,9.36-2.75,11.52-6.61c12.82-22.9,41.46-34.3,66.04-23.13c25.86,11.75,36.25,43.26,23.55,68.33
		c-7.76,15.31,15.26,28.83,23.05,13.47c14.44-28.5,10.54-61.54-8.42-84.88c19.22-14.94,46.26-15.57,66.29,0.52
		c4.71,3.78,10.6,5.41,16.17,2.09c12.65-7.56,26.46-9.53,40.72-5.85c7.07,1.82,13.31,5.41,19.21,9.61
		c6.98,4.98,10.42,14.81,17.51,18.96c6.28,3.68,16.45,2.02,23.65,4.05c6.58,1.85,12.79,5.48,18,9.85
		c11.85,9.94,18.63,24.5,19.4,39.84c0.33,6.52,3.97,10.5,9.8,12.87c42.5,17.24,60.12,66.22,44.55,107.88
		c-15.18,40.6-61.13,58.32-100.68,46.99c-10.87-36-46.64-60.98-85.21-56.36c-7.22,0.87-13.34,5.42-13.34,13.34
		c0,6.62,6.1,14.21,13.34,13.34c29.82-3.58,55.43,14.29,61.39,43.91c6.09,30.28-18.2,56.34-46.6,60.89c-0.63,0.1-1.22,0.28-1.8,0.49
		c-75.97,9.88-133.45,77.3-127.37,154.93c1.34,17.04,28.04,17.17,26.69,0c-4.99-63.58,40.61-122.41,105.18-128.8
		c1.25-0.12,2.4-0.4,3.46-0.77c0.31-0.03,0.62-0.07,0.93-0.12c36.32-5.82,63.69-36.82,66.44-72.47
		C712.62,490,764.32,460.92,784.43,411.33z"/>
</g>
</svg>
