<svg xmlns="http://www.w3.org/2000/svg" viewBox="0 0 69.14 54.38"><defs><style>.cls-1{fill:#60a0f2;}</style></defs><title>Urologíaldpi</title><g id="Capa_2" data-name="Capa 2"><g id="Capa_1-2" data-name="Capa 1"><path class="cls-1" d="M52.47,11h-1a9.63,9.63,0,0,0-7.53,15.67c-.17.21-.33.43-.48.65a3.4,3.4,0,0,1-2.3-3.19V1.65a1.65,1.65,0,0,0-3.29,0V24.16a6.74,6.74,0,0,0,4.24,6.2,9.49,9.49,0,0,0-.24,1.31,8,8,0,0,1-5.3-7.5V1.65a1.65,1.65,0,1,0-3.29,0V24.16a8,8,0,0,1-6,7.71,9.39,9.39,0,0,0-.2-1.29A6.69,6.69,0,0,0,32,24.16V1.65a1.65,1.65,0,0,0-3.29,0V24.16a3.38,3.38,0,0,1-2.9,3.33,9.43,9.43,0,0,0-.58-.8A9.63,9.63,0,0,0,17.68,11h-1C7.48,11,0,20.74,0,32.7S7.48,54.38,16.68,54.38h1A9.63,9.63,0,0,0,25.2,38.71,9.73,9.73,0,0,0,27,35.29a11.19,11.19,0,0,0,8-5.26,11.13,11.13,0,0,0,7.22,5.12,9.7,9.7,0,0,0,1.8,3.55,9.63,9.63,0,0,0,7.53,15.67h1c9.2,0,16.68-9.73,16.68-21.68S61.66,11,52.47,11ZM47.3,40a1.65,1.65,0,0,0,0-2.48,6.27,6.27,0,0,1,0-9.54,1.65,1.65,0,0,0,0-2.48,6.34,6.34,0,0,1,4.17-11.14h1c7.38,0,13.38,8.25,13.38,18.39s-6,18.39-13.38,18.39h-1A6.34,6.34,0,0,1,47.3,40ZM21.84,25.45a1.65,1.65,0,0,0,0,2.48,6.27,6.27,0,0,1,0,9.54,1.65,1.65,0,0,0,0,2.48h0a6.34,6.34,0,0,1-4.17,11.14h-1C9.3,51.09,3.29,42.84,3.29,32.7s6-18.39,13.38-18.39h1a6.34,6.34,0,0,1,4.17,11.14Z"/></g></g></svg>